<svg enable-background="new 0 0 259.2 271" height="271" viewBox="0 0 259.2 271" width="259.2" xmlns="http://www.w3.org/2000/svg"><path d="m38 76c174.6-206.5 279.7 105.2 171 154.5-5 2.3-9.8 5-14.2 8.4-62.5 48.7-108.9 23.4-151.8-27.1-2.1-2.4-4.3-4.7-6.7-6.8-50-44.1-28-77.2-5.8-118 2.1-3.9 4.6-7.6 7.5-11z" fill="#00aee0"/><path d="m130.7 271.1c-6.9 0-13.8-.9-20.6-2.7-23.6-6.2-46.4-23-71.6-52.7-1.8-2.1-3.8-4.2-6.1-6.2-51.2-45.1-31.4-81.2-10.4-119.5 1.1-2 2.1-3.9 3.2-5.9 2.4-4.4 5.1-8.4 8.2-12.1 63.3-74.9 113.6-78.1 144.5-67.6 23 7.8 43 25.6 58 51.6 13.5 23.5 21.7 51.8 23.1 79.8 2.4 48.1-15.4 85.6-47.5 100.1-5 2.3-9.2 4.8-12.9 7.7-23.6 18.4-46 27.5-67.9 27.5zm-88.1-191.3c-2.5 3-4.8 6.4-6.8 10-1.1 2-2.2 4-3.3 5.9-21 38.3-36.1 65.9 7.8 104.7 2.7 2.4 5.1 4.9 7.3 7.4 23.6 27.7 44.4 43.3 65.5 48.8 24.6 6.5 50.2-.9 78.1-22.6 4.5-3.5 9.5-6.5 15.4-9.1 27.5-12.5 42.6-45.6 40.5-88.6-2.4-48.5-28.2-105.6-72.9-120.6-39.5-13.3-84.9 8.9-131.6 64.1z" fill="#ffb400"/><circle cx="159" cy="141.8" fill="#ffb400" r="42.5"/><path d="m159 186.8c-24.8 0-45-20.2-45-45s20.2-45 45-45 45 20.2 45 45-20.2 45-45 45zm0-85c-22.1 0-40 17.9-40 40s17.9 40 40 40 40-17.9 40-40c0-22-17.9-40-40-40z" fill="#04294f"/><ellipse cx="146.7" cy="132.7" fill="#f04e23" rx="16" ry="14.8" transform="matrix(.2054 -.9787 .9787 .2054 -13.2684 249.0646)"/><path d="m203.9 75.6c-8.4 5-13.5-6.7-27.5-6.2s-15.1 13.2-30.2 5.3c-7.2-3.8-5.5-28.8 18.3-31.9 19.3-2.5 35.3 1 40.5 8.8 5.2 7.7 8 18.6-1.1 24z" fill="#ffb400"/><path d="m118.2 223.6c4.7-7.4 13.7.9 24.9-4.6 11.1-5.5 6.8-17 22.2-15.6 7.4.7 16.4 23.1-1.6 34.5-14.6 9.2-29 11.9-36.4 7.1-7.4-4.9-14.2-13.3-9.1-21.4z" fill="#ffb400"/><g fill="#fff"><path d="m37.5 105.3c2-8 21-8 29-21 7.3-11.9 18-30 22-24s-14 31-9 32 17-8 18-15 9-13 10-3-11 23-18 27-9 23-17 29-21 6-16-2 14.1-12 15-19c1-8-11-1-19 1-7.7 2-17.3 4.2-15-5z"/><circle cx="72" cy="179.8" r="17.5"/></g></svg>