<svg height="1046" viewBox="0 0 835.94 1045.21" width="836" xmlns="http://www.w3.org/2000/svg"><path d="m160.48 306.4c27.63-28.54 64.78-55.93 103.57-47.38 27.06 6 47.85 28.88 58.63 54.41s13.15 53.69 15.4 81.3l29.62 364.22c2.92 36 5.08 75.05-15.06 105-18.17 27-50.87 40.44-82.78 46.75-55.82 11-114.65 3.16-166.55-19.77-39.56-17.47-94.23-47-99.47-94.55-11.89-107.89 3.84-225.93 47.16-325.38 26.41-60.72 63.36-117 109.48-164.6z" fill="#00aee0"/><path d="m20.07 728.23c2.27 0 4.32 6.91 6.26 18 1 5.56 1.93 12.16 2.89 19.48l1.45 11.48.73 6.07.36 3.1.4 2.67a52.64 52.64 0 0 0 2.94 10.24 62.82 62.82 0 0 0 4.55 9.23 124 124 0 0 0 10.62 15c6.8 8.44 11.5 13.92 10.11 15.81-1.25 1.73-8.38-.4-18-7.46a72.65 72.65 0 0 1 -15.16-15 60.17 60.17 0 0 1 -6.73-11.26 56.25 56.25 0 0 1 -4.34-13.77l-.52-3.69-.31-3.2c-.19-2.12-.36-4.21-.5-6.26-.28-4.11-.45-8.08-.52-11.86a192.21 192.21 0 0 1 .58-20.11c.94-11.41 2.96-18.45 5.19-18.47z" fill="#fff"/><path d="m260.76 274a52.88 52.88 0 0 0 -11.37-1.23v-1.05a53.92 53.92 0 0 1 11.61 1.2z" fill="#f0f"/><path d="m255.72 273.25c0 2.45-9.54 3.64-22.51 10.59-13.08 6.69-29.43 19.49-45.72 36.07-33 33.36-57.16 63.52-61 60.9-1.82-1.25 1.93-10.51 10.43-24a297.54 297.54 0 0 1 39-48.4c4.31-4.4 8.81-8.45 13.26-12.25a157.16 157.16 0 0 1 13.59-10.16 120.31 120.31 0 0 1 13.42-7.79 88.46 88.46 0 0 1 12.7-5 52.86 52.86 0 0 1 19.66-2.59 24.33 24.33 0 0 1 3.11.43 16.85 16.85 0 0 1 2.25.69c1.21.42 1.81.94 1.81 1.51z" fill="#fff"/><path d="m437 380.56c4.45-27.64 11.95-58.51 37.53-73.18 20.94-12 48.81-9 70.37 2s38.05 28.81 53.4 46.69c122 142.16 203 314.45 232.47 494.27 9 54.92 10.56 118.06-31 158-35.06 33.71-90.85 40.11-141 35.56-77.64-7-215.13-39.51-223.33-127.24-10.14-108.5-20.83-218-17.94-327.12a1578.35 1578.35 0 0 1 19.5-208.98z" fill="#00aee0"/><path d="m748.08 1013.87c-.38-1.08.89-2.62 3.33-4.62s6.06-4.48 10.31-7.58a135.92 135.92 0 0 0 13.92-11.45 99.22 99.22 0 0 0 13.76-16.44 114.17 114.17 0 0 0 10-19.23c2.57-6.29 4.55-12.23 6.17-17.32 3.22-10.19 5.41-16.89 7.74-16.74 2.15.12 4.07 7.14 3.61 18.72a89 89 0 0 1 -3.32 20.22 85 85 0 0 1 -10.6 23.33 78.71 78.71 0 0 1 -17.66 18.92 73.93 73.93 0 0 1 -18.18 10.14 49.74 49.74 0 0 1 -13.42 3.33c-3.31.25-5.29-.24-5.66-1.28z" fill="#fff"/><g fill="#10294c"><path d="m372.61 255.55c-1.19 38.07-2.25 78.06-10.28 113.53h43.31a476 476 0 0 1 -2.16-54.86c2.06-137.93 8.23-274.83 8.23-274.83s6.18-34-12.35-37.06-45.36-7.54-42.19 19.56c6.76 57.7 17.5 167.78 15.44 233.66z"/><path d="m400.91 338.83a150.34 150.34 0 0 0 5.81 33.75 270.7 270.7 0 0 0 11.44 32.78c9 21.5 20.55 42.14 33.12 62.31s26.22 40.09 39.59 60.54 26.43 41.51 38.15 63.63a483.68 483.68 0 0 1 49.33 141.16c9 48.92 10.48 99 3.34 147.46a585.1 585.1 0 0 0 -23-142.8l-2.54-8.6-2.81-8.51-2.84-8.49-3.07-8.4c-1-2.79-2-5.62-3.09-8.38l-3.28-8.28c-2.14-5.55-4.58-11-6.94-16.42-4.77-10.87-10-21.51-15.46-32s-11.32-20.73-17.53-30.86c-12.43-20.23-26-40-39.49-60.25s-26.91-40.9-39.28-62.59a511.86 511.86 0 0 1 -32.83-68 349.38 349.38 0 0 1 -11.93-36.45c-3.24-12.45-5.85-25.1-8.17-37.95v-.11a15.88 15.88 0 1 1 31.26-5.63 17.49 17.49 0 0 1 .22 2.09z"/><path d="m399.5 350.28c-2.59 21.77-10.19 42.51-20.13 61.35s-22.62 35.88-36.45 51.37-28.77 29.33-43.85 42.47c-7.54 6.58-15.17 12.92-22.71 19.26s-15.1 12.52-22.47 18.82-14.67 12.57-21.73 19-13.93 13.06-20.53 19.88a267.56 267.56 0 0 0 -35.1 44.16 176.16 176.16 0 0 0 -22 51.81 136.45 136.45 0 0 0 -2 57.59c-8.24-18.13-11-38.92-9.58-59.34a175.15 175.15 0 0 1 15.63-59.62c8.6-18.85 20-36.27 32.75-52.29 6.36-8 13.09-15.69 20-23.15s14-14.58 21.16-21.6c28.69-27.92 58.42-53.13 83-81.31 24.48-27.93 44.17-59.48 51.85-93.87v-.08a16.32 16.32 0 0 1 32.13 5.49z"/><path d="m454 485.67 75.55 12.89 1.66.28a7 7 0 0 1 4 2.17l34 37.07-2.9-1.29 55.86 10.61-56.85-.58a3.66 3.66 0 0 1 -2.19-.75l-.71-.54-40.06-30.48 5.64 2.45-76.64.66a16.36 16.36 0 1 1 -.28-32.73 17.53 17.53 0 0 1 2.92.24z"/><path d="m504.1 562.86-26.56 51.14-.66-8.16 16.12 37.43.44 1a3.78 3.78 0 0 1 -.44 3.73l-24.4 32.7 16.12-37.48v4.78l-24.4-32.7a7.12 7.12 0 0 1 -1.21-6l.55-2.2 14-55.87a16.41 16.41 0 0 1 31.85 8 17.21 17.21 0 0 1 -1.41 3.63z"/><path d="m558.41 672.11 62.89 45.29-7.57-1.35 68-11.22.53-.09a2 2 0 0 1 1.16.15l29.13 13.11-31.06-7.59 1.68.06-64.81 23.38a7.58 7.58 0 0 1 -6.77-.81l-.8-.54-64.38-43.14a10.51 10.51 0 0 1 11.71-17.47z"/><path d="m578.52 751.52-26.9 44.48-.41.67a5.22 5.22 0 0 1 -2.37 2.08l-36.92 16.33 1.6-2.23-7.87 22.51 1.35-23.81a2.35 2.35 0 0 1 1-1.76l.65-.47 32.61-23.81-2.77 2.76 25.63-45.21a8.38 8.38 0 1 1 14.57 8.26z"/><path d="m620.79 717.59 33.21 24.77.34.25a5.87 5.87 0 0 1 2.32 5.28l-4.42 44-3-5.78 39.86 29.91-45.83-19.56a5 5 0 0 1 -3-5.14l.07-.65 4.64-44 2.66 5.53-36.31-19.88a8.79 8.79 0 1 1 8.44-15.42 9.62 9.62 0 0 1 1.02.69z"/><path d="m584.92 804 32 37.75-3.23-2.25 47.4 17.59.4.15a5.27 5.27 0 0 1 3.36 5.82l-9.48 56-.93-2.44 22.56 23.73-26.32-19.51a2.37 2.37 0 0 1 -1-2.06v-.38l3.94-56.69 3.76 6-48.33-14.84a6.39 6.39 0 0 1 -3.21-2.23l-30.1-39.28a5.84 5.84 0 0 1 9.09-7.33z"/><path d="m320.16 479.25-78.78 4-1.65.08a6.79 6.79 0 0 1 -4.26-1.23l-33.64-23.67 3.7.67-61.94 4.76 60.1-15.72a4.14 4.14 0 0 1 2.79.25l.91.42 37.32 17.3-5.91-1.15 76.81-17.96a16.37 16.37 0 0 1 7.45 31.87 17.52 17.52 0 0 1 -2.9.38z"/><path d="m279.08 512.11-3.56 60-.09 1.52a7 7 0 0 1 -1.29 3.62l-21.72 30.18.34-5.86 19.75 62.43-31.78-57.24a5.2 5.2 0 0 1 -.21-4.64l.55-1.22 15.29-33.9-1.36 5.11-3.56-60a13.85 13.85 0 1 1 27.65-1.64 15.4 15.4 0 0 1 -.01 1.64z"/><path d="m174.51 620.08-64.43 2.92h-.89a6.56 6.56 0 0 1 -4.18-1.27l-33.17-24.28 5.17-.28-37.64 21.75 32-29.39a3.92 3.92 0 0 1 4.23-.7l.95.42 37.66 16.56-5.07-1.22 64.39-3.52a9.52 9.52 0 1 1 1 19z"/><path d="m156.26 659.79 36.66 44.61.18.21a4.43 4.43 0 0 1 1 2.33l4.83 43-1-2 28.32 33.44-33.5-28.38a2.82 2.82 0 0 1 -1-1.66l-.07-.38-7.52-42.58 1.16 2.55-38.79-42.76a6.4 6.4 0 1 1 9.48-8.6z"/><path d="m116.18 620.36-30.34 25.23-.62.51a5 5 0 0 1 -3.39 1.15l-37.83-1.57 3.54-2-16.46 20.32 9.38-24.43a3.15 3.15 0 0 1 2.8-2h.74l37.83-1.58-4 1.66 25.24-30.34a9.32 9.32 0 0 1 14.33 11.92 10 10 0 0 1 -1.22 1.13z"/></g></svg>