<?xml version="1.0" encoding="UTF-8"?>
<svg xmlns="http://www.w3.org/2000/svg" xmlns:xlink="http://www.w3.org/1999/xlink" viewBox="0 0 50 50" width="50px" height="50px">
<g id="surface33201904">
<path style=" stroke:none;fill-rule:nonzero;fill:rgb(100%,100%,100%);fill-opacity:1;" d="M 25 8 C 15.609375 8 8 15.609375 8 25 C 8 34.390625 15.609375 42 25 42 C 34.390625 42 42 34.390625 42 25 C 42 15.609375 34.390625 8 25 8 Z M 25 9 C 33.835938 9 41 16.164062 41 25 C 41 33.835938 33.835938 41 25 41 C 16.164062 41 9 33.835938 9 25 C 9 16.164062 16.164062 9 25 9 Z M 25.152344 17.785156 C 24.847656 17.785156 24.675781 17.859375 24.28125 18.140625 L 20.941406 20.414062 C 20.660156 20.617188 20.570312 20.777344 20.570312 21.019531 C 20.570312 21.351562 20.789062 21.574219 21.109375 21.574219 C 21.273438 21.574219 21.414062 21.527344 21.558594 21.421875 L 24.546875 19.417969 L 24.574219 19.417969 L 24.574219 31.519531 C 24.574219 31.929688 24.839844 32.210938 25.21875 32.210938 C 25.601562 32.210938 25.863281 31.925781 25.863281 31.515625 L 25.863281 18.519531 C 25.863281 18.058594 25.589844 17.785156 25.152344 17.785156 Z M 25.152344 17.785156 "/>
</g>
</svg>
