<svg fill="#000000" xmlns="http://www.w3.org/2000/svg"  viewBox="0 0 50 50" width="50px" height="50px"><path d="M 25 8 C 15.611 8 8 15.611 8 25 C 8 34.389 15.611 42 25 42 C 34.389 42 42 34.389 42 25 C 42 15.611 34.389 8 25 8 z M 25 9 C 33.837 9 41 16.163 41 25 C 41 33.837 33.837 41 25 41 C 16.163 41 9 33.837 9 25 C 9 16.163 16.163 9 25 9 z M 24.90625 17.730469 C 22.93425 17.730469 21.390859 18.658578 20.755859 20.142578 C 20.589859 20.484578 20.521484 20.797141 20.521484 21.119141 C 20.521484 21.519141 20.736187 21.744141 21.117188 21.744141 C 21.478187 21.744141 21.595422 21.568203 21.732422 21.158203 C 22.133422 19.752203 23.22625 18.902344 24.90625 18.902344 C 26.81125 18.902344 27.925781 19.977 27.925781 21.5 C 27.925781 23.063 26.625234 24.175781 24.740234 24.175781 L 23.578125 24.175781 C 23.217125 24.175781 22.974609 24.410953 22.974609 24.751953 C 22.974609 25.092953 23.217125 25.318359 23.578125 25.318359 L 24.800781 25.318359 C 27.046781 25.318359 28.433828 26.37275 28.423828 28.21875 C 28.413828 29.87875 26.996078 31.099609 24.955078 31.099609 C 23.070078 31.099609 21.851938 30.180031 21.460938 28.832031 C 21.323937 28.412031 21.147938 28.236328 20.835938 28.236328 C 20.454937 28.236328 20.220703 28.490094 20.220703 28.871094 C 20.220703 29.194094 20.288609 29.497609 20.474609 29.849609 C 21.187609 31.372609 22.798078 32.271484 24.955078 32.271484 C 27.709078 32.271484 29.779297 30.572688 29.779297 28.179688 C 29.779297 26.177688 28.363672 24.878891 26.263672 24.712891 L 26.263672 24.673828 C 28.070672 24.312828 29.271484 23.09175 29.271484 21.34375 C 29.271484 19.32275 27.59225 17.730469 24.90625 17.730469 z"/></svg>