<svg xmlns="http://www.w3.org/2000/svg"  viewBox="0 0 48 48" width="48px" height="48px"><path fill="#e8eaf6" d="M15.44,14.58c8.703-6.358,16.407-13.979,24.057-6.454c3.174,3.122,4.539,7.714,4.503,12.555	c-0.052,6.826-2.889,14.148-7.364,18.551c-7.65,7.525-23.904,2.877-28.485-6.007c-1.509-2.924-2.183-5.24-2.15-7.225	C6.076,21.568,9.683,18.786,15.44,14.58z"/><path fill="#9fa8da" d="M26.337,44c-1.147,0-2.33-0.096-3.536-0.289c-6.866-1.1-12.965-5.036-15.539-10.028	c-1.579-3.06-2.298-5.507-2.261-7.699c0.086-5.078,4.395-8.226,9.849-12.211l0,0c1.021-0.746,2.03-1.511,3.025-2.265	C25.229,5.933,32.834,0.17,40.198,7.413c3.137,3.086,4.843,7.801,4.802,13.275c-0.054,7.171-3.062,14.729-7.663,19.257	C34.649,42.59,30.756,44,26.337,44z M16.03,15.388c-5.722,4.181-8.963,6.735-9.029,10.629c-0.031,1.824,0.636,4.032,2.039,6.749	c2.257,4.379,7.915,7.983,14.078,8.971c5.218,0.838,9.889-0.336,12.817-3.217C40.176,34.346,42.95,27.341,43,20.673	c0.037-4.928-1.456-9.131-4.204-11.834c-5.835-5.737-11.292-2.119-19.712,4.263C18.079,13.863,17.061,14.634,16.03,15.388	L16.03,15.388z"/><circle cx="26.5" cy="31.5" r="7.5" fill="#5e35b1"/><circle cx="27" cy="33" r="2" fill="#311b92"/><circle cx="30" cy="11" r="1" fill="#689f38"/><circle cx="15" cy="34" r="1" fill="#689f38"/><circle cx="12" cy="26" r="1" fill="#689f38"/><circle cx="31" cy="16" r="1" fill="#689f38"/><circle cx="35.5" cy="13.5" r="1.5" fill="#689f38"/><path fill="#d81b60" d="M37.367,24.591L37.367,24.591c-0.759,0.611-1.913,0.527-2.564-0.185l-1.367-1.591	c-0.651-0.713-0.562-1.795,0.197-2.406l0,0c0.759-0.611,1.913-0.527,2.564,0.185l1.367,1.591	C38.215,22.898,38.126,23.98,37.367,24.591z"/><path fill="#ffb300" d="M26.001,20c-0.01,0-0.02,0-0.028,0c-2.483,0.068-4.44,0.852-5.978,1.92 c-0.37,0.257-0.875,0.173-1.152-0.182l0,0c-0.303-0.389-0.219-0.95,0.184-1.233c1.698-1.195,4.053-2.325,7.034-2.507 c0.552-0.033,0.971-0.507,0.938-1.059s-0.514-0.975-1.059-0.938c-7.604,0.462-11.599,6.19-11.766,6.434 c-0.312,0.457-0.193,1.079,0.263,1.39C14.608,23.944,14.805,24,14.999,24c0.319,0,0.631-0.153,0.827-0.436 c0.952-1.374,1.645-0.332,1.645-0.332c0.249,0.319,0.231,0.762-0.022,1.078c-1.743,2.178-2.399,4.374-2.411,4.417 c-0.151,0.531,0.157,1.084,0.688,1.235C15.818,29.988,15.91,30,16.001,30c0.436,0,0.836-0.288,0.961-0.728 c0.021-0.071,2.091-7.082,9.065-7.273c0.552-0.015,0.987-0.475,0.973-1.027C26.984,20.43,26.54,20,26.001,20z"/></svg>