<svg fill="#000000" xmlns="http://www.w3.org/2000/svg"  viewBox="0 0 50 50" width="50px" height="50px"><path d="M 25 8 C 15.611 8 8 15.611 8 25 C 8 34.389 15.611 42 25 42 C 34.389 42 42 34.389 42 25 C 42 15.611 34.389 8 25 8 z M 25 9 C 33.837 9 41 16.163 41 25 C 41 33.837 33.837 41 25 41 C 16.163 41 9 33.837 9 25 C 9 16.163 16.163 9 25 9 z M 22.203125 17.841797 C 21.431125 17.841797 21.089484 18.135188 21.021484 18.867188 L 20.425781 24.921875 L 20.425781 25.078125 C 20.415781 25.478125 20.650078 25.78125 21.080078 25.78125 C 21.432078 25.78125 21.549109 25.702781 22.037109 25.175781 C 22.701109 24.364781 23.746437 23.876953 24.898438 23.876953 C 26.939437 23.876953 28.443359 25.361578 28.443359 27.392578 C 28.443359 29.492578 26.939375 30.976562 24.859375 30.976562 C 23.179375 30.976563 21.890469 30.048984 21.480469 28.583984 C 21.353469 28.163984 21.187703 27.998047 20.845703 27.998047 C 20.464703 27.998047 20.220703 28.242047 20.220703 28.623047 C 20.220703 28.897047 20.277234 29.111703 20.365234 29.345703 C 20.951234 31.024703 22.680078 32.157203 24.830078 32.158203 C 27.711078 32.158203 29.78125 30.166281 29.78125 27.363281 C 29.78125 24.667281 27.818047 22.724609 25.123047 22.724609 C 23.678047 22.724609 22.409797 23.300578 21.716797 24.267578 L 21.6875 24.267578 L 22.224609 19.033203 L 28.376953 19.033203 C 28.757953 19.033203 29.001953 18.7995 29.001953 18.4375 C 29.001953 18.0755 28.757953 17.841797 28.376953 17.841797 L 22.203125 17.841797 z"/></svg>