<svg fill="#000000" xmlns="http://www.w3.org/2000/svg"  viewBox="0 0 50 50" width="50px" height="50px"><path d="M 25 8 C 15.611 8 8 15.611 8 25 C 8 34.389 15.611 42 25 42 C 34.389 42 42 34.389 42 25 C 42 15.611 34.389 8 25 8 z M 25 9 C 33.837 9 41 16.163 41 25 C 41 33.837 33.837 41 25 41 C 16.163 41 9 33.837 9 25 C 9 16.163 16.163 9 25 9 z M 24.888672 17.841797 C 22.231672 17.841797 20.639063 19.570172 20.414062 21.201172 C 20.395063 21.338172 20.386719 21.435734 20.386719 21.552734 C 20.386719 21.903734 20.610953 22.158203 21.001953 22.158203 C 21.372953 22.158203 21.527469 21.962922 21.605469 21.669922 C 21.976469 20.097922 23.11925 19.013672 24.90625 19.013672 C 26.60525 19.013672 27.876953 20.214641 27.876953 21.806641 C 27.876953 23.046641 27.349656 23.896859 25.347656 26.005859 L 20.71875 30.859375 C 20.40575 31.191375 20.337891 31.318797 20.337891 31.591797 C 20.337891 31.942797 20.601953 32.157203 21.001953 32.158203 L 29.037109 32.158203 C 29.408109 32.158203 29.662109 31.9245 29.662109 31.5625 C 29.662109 31.2005 29.408109 30.966797 29.037109 30.966797 L 22.230469 30.966797 L 22.230469 30.927734 L 26.117188 26.875 C 28.490187 24.414 29.203125 23.252281 29.203125 21.738281 C 29.203125 19.483281 27.388672 17.841797 24.888672 17.841797 z"/></svg>