<svg xmlns="http://www.w3.org/2000/svg"  viewBox="0 0 64 64" width="64px" height="64px"><path fill="#eb5552" d="M22,55h-.274a27.151,27.151,0,0,0-17.24,6.175h0A1,1,0,0,1,3,60.3V36.124A22,22,0,0,1,18.375,15.145l2.89-.913A5,5,0,0,1,22.771,14H23a3,3,0,0,1,3,3V51A4,4,0,0,1,22,55Z"/><path fill="#bf4543" d="M7,55.7a1.017,1.017,0,0,1-.514-.141A1,1,0,0,1,6,54.7V51H8v2.081A32.311,32.311,0,0,1,21.726,50H22v2h-.274A30.286,30.286,0,0,0,7.472,55.585,1,1,0,0,1,7,55.7Z"/><path fill="#eb5552" d="M42,55h.274a27.151,27.151,0,0,1,17.24,6.175h0A1,1,0,0,0,61,60.3V36.124A22,22,0,0,0,45.625,15.145l-2.89-.913A5,5,0,0,0,41.229,14H41a3,3,0,0,0-3,3V51A4,4,0,0,0,42,55Z"/><path fill="#bf4543" d="M57,55.7a1,1,0,0,1-.472-.118A30.286,30.286,0,0,0,42.274,52H42V50h.274A32.311,32.311,0,0,1,56,53.081V51h2v3.7a1,1,0,0,1-.486.859A1.017,1.017,0,0,1,57,55.7Z"/><polygon fill="#bf4543" points="47.008 28.08 51.629 29.929 52.371 28.071 48.941 26.699 51.581 24.813 50.419 23.187 47.739 25.101 46.99 19.858 45.01 20.142 45.905 26.411 43.308 28.266 34 18.958 34 3 30 3 30 18.958 20.692 28.266 18.095 26.411 18.99 20.142 17.01 19.858 16.261 25.101 13.581 23.187 12.419 24.813 15.059 26.699 11.629 28.071 12.371 29.929 16.992 28.08 19 29.514 21 31 19 33 19 34 15 34 15 36 19 36 19 40 21 40 21 34.042 20.958 34.042 31 24 32 23 33 24 43 34 43 40 45 40 45 36 49 36 49 34 45 34 45 33 43 31 45 29.514 47.008 28.08"/><rect width="2" height="2" x="56" y="47" fill="#bf4543"/><rect width="2" height="2" x="6" y="47" fill="#bf4543"/></svg>