<svg xmlns="http://www.w3.org/2000/svg"  viewBox="0 0 100 100" width="100px" height="100px"><path fill="#c7ede6" d="M87.215,56.71C88.35,54.555,89,52.105,89,49.5c0-6.621-4.159-12.257-10.001-14.478 C78.999,35.015,79,35.008,79,35c0-11.598-9.402-21-21-21c-9.784,0-17.981,6.701-20.313,15.757C36.211,29.272,34.638,29,33,29 c-7.692,0-14.023,5.793-14.89,13.252C12.906,43.353,9,47.969,9,53.5C9,59.851,14.149,65,20.5,65c0.177,0,0.352-0.012,0.526-0.022 C21.022,65.153,21,65.324,21,65.5C21,76.822,30.178,86,41.5,86c6.437,0,12.175-2.972,15.934-7.614C59.612,80.611,62.64,82,66,82 c4.65,0,8.674-2.65,10.666-6.518C77.718,75.817,78.837,76,80,76c6.075,0,11-4.925,11-11C91,61.689,89.53,58.727,87.215,56.71z"/><path fill="#fdfcef" d="M71.125,46.5c0,0-3.64,0-6.125,0s-4.5-2.015-4.5-4.5c0-2.333,1.782-4.229,4.055-4.455 C64.533,37.364,64.5,37.187,64.5,37c0-2.485,2.015-4.5,4.5-4.5c1.438,0,2.703,0.686,3.527,1.736 C72.667,31.6,74.829,29.5,77.5,29.5c2.761,0,5,2.239,5,5c0,0.446-0.077,0.87-0.187,1.282c0.642-0.777,1.6-1.282,2.687-1.282 c1.781,0,3.234,1.335,3.455,3.055C88.636,37.533,88.813,37.5,89,37.5c2.485,0,4.5,2.015,4.5,4.5s-2.015,4.5-4.5,4.5s-9.5,0-9.5,0 h-5.375V47h-3V46.5z"/><path fill="#472b29" d="M77.5,29c3.033,0,5.5,2.467,5.5,5.5c0,0.016,0,0.031,0,0.047C83.602,34.192,84.29,34,85,34 c1.831,0,3.411,1.261,3.858,3.005C88.905,37.002,88.952,37,89,37c2.757,0,5,2.243,5,5s-2.243,5-5,5H74.125 c-0.276,0-0.5-0.224-0.5-0.5s0.224-0.5,0.5-0.5H89c2.206,0,4-1.794,4-4s-1.794-4-4-4c-0.117,0-0.23,0.017-0.343,0.032 l-0.141,0.019c-0.021,0.003-0.041,0.004-0.062,0.004c-0.246,0-0.462-0.185-0.495-0.437C87.768,36.125,86.496,35,85,35 c-0.885,0-1.723,0.401-2.301,1.1c-0.098,0.118-0.241,0.182-0.386,0.182c-0.078,0-0.156-0.018-0.228-0.056 c-0.209-0.107-0.314-0.346-0.254-0.573C81.946,35.218,82,34.852,82,34.5c0-2.481-2.019-4.5-4.5-4.5 c-2.381,0-4.347,1.872-4.474,4.263c-0.011,0.208-0.15,0.387-0.349,0.45c-0.05,0.016-0.101,0.024-0.152,0.024 c-0.15,0-0.296-0.069-0.392-0.192C71.362,33.563,70.221,33,69,33c-2.206,0-4,1.794-4,4c0,0.117,0.017,0.23,0.032,0.343 l0.019,0.141c0.016,0.134-0.022,0.268-0.106,0.373c-0.084,0.105-0.207,0.172-0.34,0.185C62.549,38.247,61,39.949,61,42 c0,2.206,1.794,4,4,4h6.125c0.276,0,0.5,0.224,0.5,0.5s-0.224,0.5-0.5,0.5H65c-2.757,0-5-2.243-5-5 c0-2.397,1.689-4.413,4.003-4.877C64.001,37.082,64,37.041,64,37c0-2.757,2.243-5,5-5c1.176,0,2.293,0.416,3.183,1.164 C72.781,30.76,74.945,29,77.5,29L77.5,29z"/><path fill="#472b29" d="M79,36c1.403,0,2.609,0.999,2.913,2.341C82.28,38.119,82.699,38,83.125,38 c1.202,0,2.198,0.897,2.353,2.068C85.681,40.022,85.874,40,86.063,40c1.529,0,2.811,1.2,2.918,2.732 C88.99,42.87,88.886,42.99,88.749,43c-0.006,0-0.012,0-0.018,0c-0.13,0-0.24-0.101-0.249-0.232 c-0.089-1.271-1.151-2.268-2.419-2.268c-0.229,0-0.47,0.042-0.738,0.127c-0.022,0.007-0.045,0.01-0.067,0.01 c-0.055,0-0.11-0.02-0.156-0.054C85.038,40.537,85,40.455,85,40.375c0-1.034-0.841-1.875-1.875-1.875 c-0.447,0-0.885,0.168-1.231,0.473c-0.047,0.041-0.106,0.063-0.165,0.063c-0.032,0-0.063-0.006-0.093-0.019 c-0.088-0.035-0.148-0.117-0.155-0.212C81.377,37.512,80.288,36.5,79,36.5c-0.208,0-0.425,0.034-0.682,0.107 c-0.023,0.007-0.047,0.01-0.07,0.01c-0.109,0-0.207-0.073-0.239-0.182c-0.038-0.133,0.039-0.271,0.172-0.309 C78.483,36.04,78.744,36,79,36L79,36z"/><path fill="#472b29" d="M65.117,37.5c1.326,0,2.508,0.897,2.874,2.182c0.038,0.133-0.039,0.271-0.172,0.309 C67.795,39.997,67.772,40,67.75,40c-0.109,0-0.209-0.072-0.24-0.182C67.205,38.748,66.221,38,65.117,38 c-0.117,0-0.23,0.014-0.342,0.029c-0.012,0.002-0.023,0.003-0.035,0.003c-0.121,0-0.229-0.092-0.246-0.217 c-0.019-0.137,0.077-0.263,0.214-0.281C64.842,37.516,64.978,37.5,65.117,37.5L65.117,37.5z"/><path fill="#fff" d="M70.405,23H60.5c-0.276,0-0.5-0.224-0.5-0.5s0.224-0.5,0.5-0.5h9.905c0.276,0,0.5,0.224,0.5,0.5 S70.682,23,70.405,23z"/><path fill="#fff" d="M73.5,23h-1c-0.276,0-0.5-0.224-0.5-0.5s0.224-0.5,0.5-0.5h1c0.276,0,0.5,0.224,0.5,0.5 S73.777,23,73.5,23z"/><path fill="#fff" d="M78.491,25H69.5c-0.276,0-0.5-0.224-0.5-0.5s0.224-0.5,0.5-0.5h8.991c0.276,0,0.5,0.224,0.5,0.5 S78.767,25,78.491,25z"/><path fill="#fff" d="M67.5,25h-1c-0.276,0-0.5-0.224-0.5-0.5s0.224-0.5,0.5-0.5h1c0.276,0,0.5,0.224,0.5,0.5 S67.777,25,67.5,25z"/><path fill="#fff" d="M64.5,25h-2c-0.276,0-0.5-0.224-0.5-0.5s0.224-0.5,0.5-0.5h2c0.276,0,0.5,0.224,0.5,0.5 S64.777,25,64.5,25z"/><path fill="#fff" d="M70.5,27h-2c-0.276,0-0.5-0.224-0.5-0.5s0.224-0.5,0.5-0.5h2c0.276,0,0.5,0.224,0.5,0.5 S70.776,27,70.5,27z"/><path fill="#fff" d="M73.5,18c-0.177,0-0.823,0-1,0c-0.276,0-0.5,0.224-0.5,0.5c0,0.276,0.224,0.5,0.5,0.5 c0.177,0,0.823,0,1,0c0.276,0,0.5-0.224,0.5-0.5C74,18.224,73.776,18,73.5,18z"/><path fill="#fff" d="M73.5,20c-0.177,0-4.823,0-5,0c-0.276,0-0.5,0.224-0.5,0.5c0,0.276,0.224,0.5,0.5,0.5 c0.177,0,4.823,0,5,0c0.276,0,0.5-0.224,0.5-0.5C74,20.224,73.776,20,73.5,20z"/><path fill="#fff" d="M78.5,22c-0.177,0-2.823,0-3,0c-0.276,0-0.5,0.224-0.5,0.5c0,0.276,0.224,0.5,0.5,0.5 c0.177,0,2.823,0,3,0c0.276,0,0.5-0.224,0.5-0.5C79,22.224,78.776,22,78.5,22z"/><g><path fill="#fff" d="M50.5,80h-10c-0.276,0-0.5-0.224-0.5-0.5s0.224-0.5,0.5-0.5h10c0.276,0,0.5,0.224,0.5,0.5 S50.776,80,50.5,80z"/><path fill="#fff" d="M54.5,80h-2c-0.276,0-0.5-0.224-0.5-0.5s0.224-0.5,0.5-0.5h2c0.276,0,0.5,0.224,0.5,0.5 S54.776,80,54.5,80z"/><path fill="#fff" d="M59.5,82h-10c-0.276,0-0.5-0.224-0.5-0.5s0.224-0.5,0.5-0.5h10c0.276,0,0.5,0.224,0.5,0.5 S59.777,82,59.5,82z"/><path fill="#fff" d="M47.5,82h-1c-0.276,0-0.5-0.224-0.5-0.5s0.224-0.5,0.5-0.5h1c0.276,0,0.5,0.224,0.5,0.5 S47.776,82,47.5,82z"/><path fill="#fff" d="M44.47,82H42.5c-0.276,0-0.5-0.224-0.5-0.5s0.224-0.5,0.5-0.5h1.97c0.276,0,0.5,0.224,0.5,0.5 S44.746,82,44.47,82z"/><path fill="#fff" d="M53.5,78h-5c-0.276,0-0.5-0.224-0.5-0.5s0.224-0.5,0.5-0.5h5c0.276,0,0.5,0.224,0.5,0.5 S53.777,78,53.5,78z"/><path fill="#fff" d="M50.5,84h-2c-0.276,0-0.5-0.224-0.5-0.5s0.224-0.5,0.5-0.5h2c0.276,0,0.5,0.224,0.5,0.5 S50.776,84,50.5,84z"/></g><g><path fill="#f4989e" d="M30.683,73.06c-1.57,0-2.849-0.231-3.421-0.619C24.7,70.701,24.7,67.959,24.7,61.333 c0-12.021,6.752-20.658,13.071-24.734c1.897-1.224,3.677-1.899,5.008-1.899c1.696,0,2.521,1.066,2.521,3.258v22.4 c0,2.552-0.609,8.738-6.259,11.039C36.484,72.438,33.36,73.06,30.683,73.06z"/><path fill="#472b29" d="M42.78,35.4L42.78,35.4c0.591,0,1.82,0,1.82,2.559v22.4c0,2.411-0.567,8.25-5.824,10.391 c-2.477,1.008-5.502,1.61-8.094,1.61c-1.692,0-2.687-0.268-3.026-0.498c-2.16-1.466-2.256-3.545-2.256-10.529 c0-11.739,6.586-20.17,12.75-24.146C39.937,36.035,41.581,35.4,42.78,35.4 M42.78,34c-1.497,0-3.389,0.721-5.388,2.01 C31.351,39.906,24,48.671,24,61.333c0,6.813,0,9.739,2.87,11.688c0.718,0.487,2.102,0.74,3.812,0.74 c2.528,0,5.77-0.552,8.622-1.714C44.087,70.098,46,65.229,46,60.359c0-1.948,0-22.4,0-22.4C46,35.21,44.72,34,42.78,34L42.78,34z"/><path fill="#f4989e" d="M72.317,73.06c-2.678,0-5.802-0.621-8.358-1.662C58.31,69.096,57.7,62.911,57.7,60.359v-22.4 c0-2.192,0.824-3.258,2.521-3.258c1.331,0,3.11,0.674,5.008,1.899C71.548,40.674,78.3,49.312,78.3,61.333 c0,6.626,0,9.368-2.563,11.108C75.166,72.828,73.888,73.06,72.317,73.06L72.317,73.06z"/><path fill="#472b29" d="M60.22,35.4c1.199,0,2.843,0.635,4.629,1.787c6.164,3.976,12.75,12.407,12.75,24.146 c0,6.984-0.096,9.063-2.256,10.529c-0.339,0.23-1.334,0.498-3.026,0.498c-2.592,0-5.618-0.602-8.094-1.61 C58.968,68.609,58.4,62.77,58.4,60.359v-22.4C58.4,35.4,59.63,35.4,60.22,35.4 M60.22,34C58.28,34,57,35.21,57,37.958 c0,0,0,20.452,0,22.4c0,4.87,1.913,9.739,6.696,11.687c2.853,1.162,6.094,1.714,8.622,1.714c1.71,0,3.094-0.252,3.812-0.74 C79,71.072,79,68.146,79,61.333c0-12.661-7.351-21.426-13.391-25.322C63.609,34.721,61.718,34,60.22,34L60.22,34z"/><path fill="#f6cca4" d="M63,56c-7.107-4.441-9-10-9-13v-2.25V25h-5v15.75V43c0,3-1.893,8.559-9,13 c0,0,9.233-2.31,11.5-10.303C53.767,53.69,63,56,63,56z"/><path fill="#472b29" d="M63,56.5c-0.04,0-0.081-0.005-0.121-0.015c-0.365-0.092-8.486-2.201-11.379-9.258 c-2.893,7.057-11.014,9.167-11.379,9.258c-0.237,0.059-0.484-0.063-0.581-0.29s-0.014-0.489,0.195-0.62 C46.204,51.534,48.5,46.275,48.5,43V25c0-0.276,0.224-0.5,0.5-0.5h5c0.276,0,0.5,0.224,0.5,0.5v18 c0,3.275,2.296,8.534,8.765,12.576c0.209,0.13,0.292,0.393,0.195,0.62C63.38,56.384,63.196,56.5,63,56.5z M51.5,45.197 c0.224,0,0.42,0.148,0.481,0.364c1.252,4.413,4.766,7.047,7.516,8.486C55.138,50.274,53.5,46.04,53.5,43V25.5h-4V43 c0,3.04-1.638,7.274-5.997,11.047c2.75-1.439,6.264-4.073,7.516-8.486C51.08,45.346,51.276,45.197,51.5,45.197z"/><path fill="#472b29" d="M70.674,64.742c-0.01,0-0.021,0-0.031-0.001c-0.274-0.017-0.482-0.252-0.468-0.526 c0.002-0.056,0.04-1.336-1.37-2.746c-0.936-0.935-1.114-1.59-1.272-2.168c-0.125-0.456-0.224-0.816-0.758-1.331 c-0.766-0.738-3.054-1.319-3.871-1.48c-0.271-0.053-0.447-0.316-0.394-0.587c0.053-0.271,0.319-0.448,0.587-0.394 c0.33,0.065,3.259,0.668,4.371,1.741c0.732,0.706,0.89,1.28,1.028,1.786c0.138,0.503,0.268,0.977,1.016,1.725 c1.75,1.75,1.666,3.44,1.661,3.511C71.156,64.538,70.937,64.742,70.674,64.742z"/><path fill="#472b29" d="M72,59.626c-0.132,0-0.263-0.051-0.36-0.153c-0.337-0.348-1.06-0.871-1.504-0.8 c-0.978,0.155-2.67-0.291-2.861-0.343c-0.266-0.072-0.424-0.346-0.352-0.613c0.071-0.266,0.349-0.424,0.612-0.352 c0.46,0.124,1.794,0.423,2.444,0.32c1.122-0.176,2.257,0.965,2.382,1.095c0.19,0.199,0.184,0.515-0.016,0.706 C72.249,59.58,72.124,59.626,72,59.626z"/><path fill="#472b29" d="M67.389,66.005c-0.089,0-0.18-0.024-0.262-0.074c-0.067-0.042-1.666-1.044-2.057-2.712 c-0.249-1.067-0.025-1.819,0.191-2.547c0.118-0.398,0.229-0.774,0.271-1.214c0.11-1.148-0.653-2.501-0.661-2.515 c-0.137-0.24-0.054-0.545,0.186-0.682s0.543-0.054,0.682,0.185c0.038,0.066,0.931,1.639,0.79,3.107 c-0.052,0.537-0.183,0.978-0.309,1.404c-0.196,0.658-0.365,1.227-0.176,2.035c0.294,1.257,1.595,2.081,1.608,2.089 c0.233,0.146,0.306,0.454,0.161,0.688C67.72,65.921,67.556,66.005,67.389,66.005z"/><path fill="#472b29" d="M59.667,54c-0.222,0-0.425-0.148-0.483-0.373c-0.07-0.267,0.089-0.541,0.356-0.611 c0.872-0.229,3.266-1.047,3.862-2.062c0.368-0.626,0-1.605-0.391-2.641c-0.313-0.832-0.637-1.692-0.637-2.522 c0-1.935,1.813-4.402,1.891-4.506c0.164-0.222,0.479-0.268,0.699-0.104c0.222,0.164,0.269,0.477,0.104,0.699 c-0.017,0.023-1.693,2.307-1.693,3.911c0,0.648,0.291,1.421,0.573,2.169c0.455,1.211,0.927,2.463,0.315,3.501 c-0.911,1.55-4.108,2.427-4.47,2.522C59.751,53.995,59.709,54,59.667,54z"/><path fill="#472b29" d="M64.042,50.166c-0.071,0-0.144-0.015-0.212-0.047c-0.25-0.117-0.357-0.414-0.241-0.663 c0.041-0.087,1.021-2.143,3-2.287c0.84-0.06,1.564,0.365,2.271,0.777c1.016,0.591,1.975,1.149,3.385,0.628 c0.257-0.096,0.546,0.037,0.642,0.296c0.096,0.259-0.036,0.547-0.296,0.642c-1.856,0.685-3.175-0.085-4.234-0.702 c-0.628-0.366-1.166-0.681-1.694-0.643c-1.388,0.102-2.159,1.698-2.167,1.714C64.409,50.06,64.229,50.166,64.042,50.166z"/><path fill="#472b29" d="M31.46,65.579c-0.262,0-0.481-0.202-0.498-0.467c-0.005-0.077-0.096-1.917,1.816-3.829 c0.833-0.833,0.979-1.363,1.132-1.923c0.158-0.579,0.321-1.177,1.119-1.946c1.215-1.172,4.429-1.833,4.791-1.905 c0.267-0.054,0.533,0.122,0.587,0.394c0.054,0.271-0.122,0.534-0.394,0.587c-0.904,0.179-3.439,0.824-4.291,1.644 c-0.599,0.578-0.709,0.98-0.849,1.49c-0.172,0.631-0.368,1.345-1.389,2.366c-1.573,1.574-1.528,3.004-1.525,3.064 c0.013,0.274-0.198,0.509-0.473,0.524C31.479,65.579,31.469,65.579,31.46,65.579z"/><path fill="#472b29" d="M30,59.945c-0.124,0-0.249-0.046-0.346-0.139c-0.199-0.191-0.206-0.507-0.016-0.707 c0.136-0.142,1.354-1.386,2.579-1.192c0.729,0.114,2.205-0.217,2.714-0.354c0.271-0.072,0.543,0.086,0.613,0.352 c0.072,0.267-0.085,0.541-0.352,0.613c-0.209,0.056-2.061,0.545-3.132,0.376c-0.553-0.087-1.385,0.566-1.7,0.896 C30.263,59.893,30.132,59.945,30,59.945z"/><path fill="#472b29" d="M35.081,66.973c-0.167,0-0.331-0.084-0.426-0.237c-0.145-0.234-0.072-0.542,0.161-0.688 c0.015-0.009,1.466-0.927,1.795-2.333c0.212-0.904,0.023-1.536-0.194-2.269c-0.139-0.467-0.282-0.95-0.339-1.536 c-0.151-1.602,0.823-3.321,0.865-3.394c0.138-0.24,0.443-0.321,0.682-0.185c0.24,0.137,0.322,0.443,0.186,0.682 c-0.009,0.015-0.858,1.52-0.736,2.801c0.047,0.489,0.17,0.905,0.302,1.346c0.236,0.796,0.481,1.619,0.21,2.782 c-0.426,1.817-2.169,2.91-2.243,2.956C35.261,66.949,35.17,66.973,35.081,66.973z"/><path fill="#472b29" d="M43.25,54c-0.042,0-0.084-0.005-0.127-0.016c-0.361-0.095-3.559-0.972-4.471-2.522 c-0.61-1.038-0.14-2.29,0.316-3.5c0.282-0.748,0.573-1.522,0.573-2.17c0-1.334-1.223-3.275-1.693-3.911 c-0.165-0.222-0.118-0.535,0.104-0.699c0.222-0.164,0.536-0.118,0.699,0.104c0.077,0.104,1.891,2.572,1.891,4.506 c0,0.83-0.324,1.69-0.638,2.522c-0.39,1.036-0.759,2.015-0.391,2.641c0.598,1.014,2.991,1.832,3.863,2.062 c0.268,0.07,0.427,0.344,0.356,0.611C43.675,53.852,43.472,54,43.25,54z"/><path fill="#472b29" d="M38.875,50.166c-0.188,0-0.367-0.106-0.452-0.287c-0.008-0.016-0.779-1.612-2.167-1.714 c-0.521-0.038-1.067,0.278-1.695,0.643c-1.062,0.618-2.383,1.386-4.233,0.702c-0.26-0.096-0.392-0.383-0.296-0.642 c0.096-0.259,0.385-0.392,0.642-0.296c1.416,0.522,2.37-0.038,3.384-0.628c0.707-0.412,1.433-0.837,2.271-0.777 c1.979,0.145,2.959,2.2,3,2.287c0.116,0.25,0.009,0.546-0.241,0.663C39.019,50.151,38.946,50.166,38.875,50.166z"/><path fill="#472b29" d="M53.5,28h-2c-0.276,0-0.5-0.224-0.5-0.5s0.224-0.5,0.5-0.5h2c0.276,0,0.5,0.224,0.5,0.5 S53.776,28,53.5,28z"/><path fill="#472b29" d="M53.5,31h-2c-0.276,0-0.5-0.224-0.5-0.5s0.224-0.5,0.5-0.5h2c0.276,0,0.5,0.224,0.5,0.5 S53.776,31,53.5,31z"/><path fill="#472b29" d="M53.5,34h-2c-0.276,0-0.5-0.224-0.5-0.5s0.224-0.5,0.5-0.5h2c0.276,0,0.5,0.224,0.5,0.5 S53.776,34,53.5,34z"/><path fill="#472b29" d="M53.5,37h-2c-0.276,0-0.5-0.224-0.5-0.5s0.224-0.5,0.5-0.5h2c0.276,0,0.5,0.224,0.5,0.5 S53.776,37,53.5,37z"/><path fill="#472b29" d="M53.5,40h-2c-0.276,0-0.5-0.224-0.5-0.5s0.224-0.5,0.5-0.5h2c0.276,0,0.5,0.224,0.5,0.5 S53.776,40,53.5,40z"/><path fill="#472b29" d="M53.5,43h-2c-0.276,0-0.5-0.224-0.5-0.5s0.224-0.5,0.5-0.5h2c0.276,0,0.5,0.224,0.5,0.5 S53.776,43,53.5,43z"/><path fill="#472b29" d="M75.398,58.241c-0.123,0-0.23-0.091-0.248-0.216c-0.141-1.031-0.324-2.03-0.561-3.052 c-0.031-0.134,0.052-0.269,0.187-0.3c0.141-0.033,0.27,0.052,0.3,0.187c0.241,1.037,0.428,2.05,0.57,3.097 c0.019,0.137-0.077,0.263-0.214,0.281C75.421,58.24,75.409,58.241,75.398,58.241z"/><path fill="#472b29" d="M75.696,65.913c-0.003,0-0.007,0-0.01,0c-0.138-0.005-0.245-0.122-0.24-0.26 c0.089-2.287,0.047-4.305-0.128-6.17c-0.013-0.138,0.088-0.26,0.226-0.272c0.13-0.013,0.259,0.088,0.272,0.226 c0.177,1.887,0.219,3.927,0.13,6.236C75.94,65.807,75.83,65.913,75.696,65.913z"/><path fill="#472b29" d="M72.101,70.79c-0.841,0-1.819-0.114-2.933-0.342c-0.136-0.028-0.223-0.16-0.195-0.295 c0.028-0.135,0.16-0.222,0.295-0.195c2.538,0.52,4.367,0.424,5.294-0.278c0.452-0.343,0.694-0.823,0.741-1.469 c0.027-0.375,0.052-0.741,0.072-1.101c0.009-0.138,0.12-0.241,0.265-0.235c0.138,0.008,0.243,0.126,0.235,0.264 c-0.022,0.362-0.047,0.731-0.074,1.107c-0.057,0.787-0.372,1.403-0.938,1.832C74.237,70.553,73.313,70.79,72.101,70.79z"/><path fill="#472b29" d="M68.019,70.175c-0.021,0-0.041-0.002-0.063-0.008c-1.781-0.458-3.2-1.012-3.215-1.018 c-0.128-0.05-0.191-0.196-0.141-0.324c0.05-0.129,0.193-0.192,0.324-0.141c0.014,0.005,1.406,0.549,3.156,0.999 c0.134,0.034,0.214,0.171,0.18,0.304C68.231,70.1,68.13,70.175,68.019,70.175z"/><path fill="#472b29" d="M64.042,38.625c-0.047,0-0.094-0.013-0.136-0.04c-0.008-0.005-0.768-0.496-1.564-0.895 c-0.123-0.062-0.173-0.212-0.111-0.336c0.063-0.124,0.213-0.172,0.336-0.112c0.822,0.412,1.58,0.902,1.611,0.923 c0.116,0.075,0.149,0.23,0.074,0.346C64.204,38.585,64.124,38.625,64.042,38.625z"/><path fill="#472b29" d="M59.792,38.292c-0.004,0-0.008,0-0.012,0c-0.138-0.007-0.244-0.124-0.238-0.261 c0.024-0.51,0.212-0.902,0.543-1.132c0.25-0.175,0.706-0.333,1.449-0.095c0.132,0.042,0.204,0.183,0.162,0.314 c-0.042,0.132-0.184,0.203-0.314,0.162c-0.436-0.139-0.785-0.129-1.012,0.03c-0.251,0.174-0.317,0.501-0.328,0.744 C60.035,38.188,59.925,38.292,59.792,38.292z"/><path fill="#472b29" d="M59.625,42.966c0,0-0.065-2.125-0.086-3.629c-0.002-0.138,0.108-0.251,0.247-0.253 c0.142,0.004,0.251,0.109,0.253,0.247c0.021,1.5,0.086,3.619,0.086,3.62L59.625,42.966z"/><path fill="#472b29" d="M27.632,58.241c-0.011,0-0.022-0.001-0.034-0.002c-0.137-0.019-0.232-0.145-0.214-0.281 c0.144-1.046,0.33-2.06,0.57-3.097c0.031-0.134,0.161-0.218,0.3-0.187c0.134,0.031,0.218,0.166,0.187,0.3 c-0.235,1.022-0.42,2.021-0.561,3.052C27.862,58.15,27.755,58.241,27.632,58.241z"/><path fill="#472b29" d="M27.334,65.913c-0.134,0-0.244-0.106-0.25-0.24c-0.089-2.304-0.046-4.344,0.131-6.236 c0.014-0.137,0.133-0.24,0.272-0.226c0.138,0.013,0.238,0.135,0.226,0.272c-0.176,1.87-0.218,3.888-0.129,6.17 c0.005,0.138-0.103,0.254-0.24,0.26C27.341,65.913,27.337,65.913,27.334,65.913z"/><path fill="#472b29" d="M30.933,70.789c-1.239,0-2.178-0.247-2.803-0.739c-0.542-0.427-0.846-1.034-0.9-1.803 c-0.027-0.377-0.051-0.746-0.073-1.107c-0.008-0.138,0.098-0.256,0.235-0.264c0.129-0.006,0.256,0.097,0.265,0.235 c0.021,0.36,0.044,0.726,0.071,1.101c0.046,0.632,0.278,1.105,0.712,1.446c0.822,0.648,2.406,0.8,4.584,0.438 c0.134-0.024,0.266,0.069,0.288,0.206s-0.07,0.265-0.206,0.288C32.301,70.722,31.576,70.789,30.933,70.789z"/><path fill="#472b29" d="M34.787,70.232c-0.112,0-0.215-0.076-0.242-0.19c-0.034-0.134,0.048-0.27,0.182-0.303 c1.854-0.46,3.364-1.049,3.379-1.055c0.13-0.051,0.274,0.013,0.324,0.141c0.051,0.128-0.013,0.273-0.141,0.324 c-0.016,0.006-1.554,0.607-3.441,1.075C34.827,70.229,34.807,70.232,34.787,70.232z"/><g><path fill="#472b29" d="M38.989,38.625c-0.082,0-0.162-0.04-0.21-0.114c-0.075-0.116-0.042-0.271,0.074-0.346 c0.031-0.021,0.789-0.511,1.61-0.923c0.125-0.061,0.274-0.012,0.336,0.111s0.012,0.274-0.111,0.335 c-0.796,0.399-1.556,0.89-1.563,0.895C39.083,38.612,39.036,38.625,38.989,38.625z"/></g><g><path fill="#472b29" d="M43.239,38.292c-0.133,0-0.243-0.104-0.25-0.238c-0.012-0.244-0.078-0.571-0.328-0.745 c-0.229-0.158-0.578-0.168-1.013-0.029c-0.13,0.042-0.271-0.03-0.314-0.162c-0.042-0.132,0.03-0.272,0.162-0.314 c0.742-0.238,1.198-0.08,1.449,0.094c0.331,0.229,0.52,0.621,0.544,1.132c0.006,0.138-0.101,0.255-0.238,0.262 C43.247,38.292,43.243,38.292,43.239,38.292z"/></g><g><path fill="#472b29" d="M43.405,42.966l-0.5-0.016c0,0,0.066-2.12,0.086-3.62c0.002-0.138,0.131-0.245,0.253-0.247 c0.139,0.002,0.249,0.115,0.247,0.253C43.472,40.841,43.405,42.966,43.405,42.966z"/></g></g><g><path fill="#fdfcef" d="M28.5,77.5c0,0,1.567,0,3.5,0s3.5-1.567,3.5-3.5c0-1.781-1.335-3.234-3.055-3.455 C32.473,70.366,32.5,70.187,32.5,70c0-1.933-1.567-3.5-3.5-3.5c-1.032,0-1.95,0.455-2.59,1.165 c-0.384-1.808-1.987-3.165-3.91-3.165c-2.209,0-4,1.791-4,4c0,0.191,0.03,0.374,0.056,0.558C18.128,68.714,17.592,68.5,17,68.5 c-1.228,0-2.245,0.887-2.455,2.055C14.366,70.527,14.187,70.5,14,70.5c-1.933,0-3.5,1.567-3.5,3.5s1.567,3.5,3.5,3.5s7.5,0,7.5,0 V78h7V77.5z"/><path fill="#472b29" d="M30.25,73C30.112,73,30,72.888,30,72.75c0-1.223,0.995-2.218,2.218-2.218 c0.034,0.009,0.737-0.001,1.244,0.136c0.133,0.036,0.212,0.173,0.176,0.306c-0.036,0.134-0.173,0.213-0.306,0.176 c-0.444-0.12-1.1-0.12-1.113-0.118c-0.948,0-1.719,0.771-1.719,1.718C30.5,72.888,30.388,73,30.25,73z"/><circle cx="23.5" cy="77.5" r=".5" fill="#472b29"/><path fill="#472b29" d="M32,78h-3.5c-0.276,0-0.5-0.224-0.5-0.5s0.224-0.5,0.5-0.5H32c1.654,0,3-1.346,3-3 c0-1.496-1.125-2.768-2.618-2.959c-0.134-0.018-0.255-0.088-0.336-0.196s-0.115-0.244-0.094-0.377C31.975,70.314,32,70.16,32,70 c0-1.654-1.346-3-3-3c-0.85,0-1.638,0.355-2.219,1c-0.125,0.139-0.321,0.198-0.5,0.148c-0.182-0.049-0.321-0.195-0.36-0.379 C25.58,66.165,24.141,65,22.5,65c-1.93,0-3.5,1.57-3.5,3.5c0,0.143,0.021,0.28,0.041,0.418c0.029,0.203-0.063,0.438-0.242,0.54 c-0.179,0.102-0.396,0.118-0.556-0.01C17.878,69.155,17.449,69,17,69c-0.966,0-1.792,0.691-1.963,1.644 c-0.048,0.267-0.296,0.446-0.569,0.405C14.314,71.025,14.16,71,14,71c-1.654,0-3,1.346-3,3s1.346,3,3,3h7.5 c0.276,0,0.5,0.224,0.5,0.5S21.776,78,21.5,78H14c-2.206,0-4-1.794-4-4s1.794-4,4-4c0.059,0,0.116,0.002,0.174,0.006 C14.588,68.82,15.711,68,17,68c0.349,0,0.689,0.061,1.011,0.18C18.176,65.847,20.126,64,22.5,64c1.831,0,3.466,1.127,4.153,2.774 C27.333,66.276,28.155,66,29,66c2.206,0,4,1.794,4,4c0,0.048-0.001,0.095-0.004,0.142C34.739,70.59,36,72.169,36,74 C36,76.206,34.206,78,32,78z"/><path fill="#472b29" d="M26.5,77c-0.159,0-0.841,0-1,0c-0.276,0-0.5,0.224-0.5,0.5c0,0.276,0.224,0.5,0.5,0.5 c0.159,0,0.841,0,1,0c0.276,0,0.5-0.224,0.5-0.5C27,77.224,26.776,77,26.5,77z"/></g></svg>