<svg fill="#000000" xmlns="http://www.w3.org/2000/svg"  viewBox="0 0 50 50" width="50px" height="50px"><path d="M 25 8 C 15.611 8 8 15.611 8 25 C 8 34.389 15.611 42 25 42 C 34.389 42 42 34.389 42 25 C 42 15.611 34.389 8 25 8 z M 25 9 C 33.837 9 41 16.163 41 25 C 41 33.837 33.837 41 25 41 C 16.163 41 9 33.837 9 25 C 9 16.163 16.163 9 25 9 z M 27.066406 17.789062 C 26.490406 17.789063 26.1385 18.043047 25.5625 18.873047 C 23.4245 21.871047 21.383094 24.819938 19.996094 27.085938 C 19.752094 27.515937 19.673828 27.749797 19.673828 28.091797 C 19.673828 28.559797 19.976078 28.863281 20.455078 28.863281 L 26.851562 28.863281 L 26.851562 31.519531 C 26.851563 31.929531 27.124859 32.211891 27.505859 32.212891 C 27.877859 32.212891 28.150391 31.929531 28.150391 31.519531 L 28.150391 28.863281 L 29.703125 28.863281 C 30.064125 28.863281 30.328125 28.628578 30.328125 28.267578 C 30.328125 27.906578 30.064125 27.681641 29.703125 27.681641 L 28.150391 27.681641 L 28.150391 18.833984 C 28.150391 18.149984 27.769406 17.789062 27.066406 17.789062 z M 26.830078 19.146484 L 26.851562 19.146484 L 26.851562 27.681641 L 21.039062 27.681641 L 21.039062 27.642578 C 22.455063 25.328578 24.281078 22.691484 26.830078 19.146484 z"/></svg>