<?xml version="1.0" encoding="UTF-8"?>
<svg xmlns="http://www.w3.org/2000/svg" xmlns:xlink="http://www.w3.org/1999/xlink" viewBox="0 0 64 64" width="64px" height="64px">
<g id="surface33187696">
<path style=" stroke:none;fill-rule:nonzero;fill:rgb(100%,100%,100%);fill-opacity:1;" d="M 28 0 C 25.300781 -0.0273438 22.761719 1.289062 21.230469 3.511719 C 20.484375 4.527344 20.054688 5.742188 20 7 C 20 9.066406 18.171875 11.308594 17.609375 11.949219 C 16.976562 12.664062 16.824219 13.6875 17.214844 14.5625 C 17.609375 15.4375 18.480469 16 19.4375 16 L 20 16 L 20 20 C 20 21.65625 21.34375 23 23 23 L 26 23 L 26 26.253906 L 13.78125 29.910156 C 10.929688 30.699219 8.75 32.996094 8.109375 35.886719 L 7.015625 40.820312 L 3.015625 62.820312 C 2.964844 63.113281 3.042969 63.414062 3.234375 63.640625 C 3.421875 63.867188 3.703125 64 4 64 L 14 64 C 14.480469 64 14.890625 63.660156 14.980469 63.191406 L 16.320312 56.5 L 19.070312 63.371094 L 20.929688 62.628906 L 17 52.808594 L 17 43 L 15 43 L 15 52.910156 L 13.183594 62 L 5.199219 62 L 8.976562 41.21875 L 10.0625 36.316406 C 10.546875 34.148438 12.191406 32.421875 14.335938 31.832031 L 27.285156 27.964844 C 27.710938 27.835938 28 27.445312 28 27.003906 L 28 22.003906 C 28 21.453125 27.550781 21.003906 27 21.003906 L 23 21.003906 C 22.449219 21.003906 22 20.554688 22 20.003906 L 22 20 L 28 20 C 28.492188 20 29 20 29 21.417969 L 29 24 L 31 24 L 31 21.417969 C 31 18.332031 28.898438 18 28 18 L 22 18 L 22 15.003906 C 22 14.453125 21.550781 14.003906 21 14.003906 L 19.4375 14.003906 C 19.195312 14.003906 19 13.808594 19 13.566406 C 19 13.457031 19.039062 13.347656 19.113281 13.265625 C 19.175781 13.195312 19.257812 13.082031 19.324219 13 L 28 13 C 31.316406 13 33 15.019531 33 19 L 33 36 C 32.996094 36.335938 33.164062 36.652344 33.445312 36.835938 L 35.34375 38.105469 C 35.753906 38.375 36 38.835938 36 39.328125 L 36 39.527344 C 36 40.210938 35.527344 40.800781 34.863281 40.957031 C 34.199219 41.113281 33.515625 40.792969 33.210938 40.183594 L 32.894531 39.550781 C 32.707031 39.234375 32.367188 39.042969 32 39.042969 C 31.632812 39.042969 31.292969 39.234375 31.105469 39.550781 L 30.789062 40.183594 C 30.484375 40.792969 29.796875 41.113281 29.132812 40.957031 C 28.46875 40.800781 28 40.207031 28 39.523438 L 28 39.324219 C 28 38.832031 28.246094 38.371094 28.652344 38.097656 L 30.554688 36.832031 C 30.832031 36.648438 31 36.335938 31 36 L 31 30 L 29 30 L 29 31.640625 C 28.1875 31.179688 27.265625 30.957031 26.332031 31 C 24.570312 31 22.25 32.898438 19.4375 36.652344 C 18.5 37.925781 17.996094 39.46875 18 41.046875 L 18 52.210938 C 17.917969 54.765625 19.917969 56.90625 22.46875 57 C 23.425781 56.996094 24.351562 56.675781 25.097656 56.085938 L 29.160156 52.921875 C 30.335938 51.980469 31.011719 50.554688 31 49.050781 L 31 42.640625 C 31.375 42.460938 31.714844 42.210938 32 41.910156 C 32.285156 42.214844 32.625 42.460938 33 42.644531 L 33 49.050781 C 32.988281 50.554688 33.667969 51.980469 34.839844 52.921875 L 38.894531 56.085938 C 39.644531 56.675781 40.574219 57 41.527344 57 C 44.082031 56.90625 46.082031 54.765625 46 52.210938 L 46 41.046875 C 46.003906 39.46875 45.5 37.925781 44.5625 36.652344 C 41.75 32.898438 39.429688 31 37.667969 31 C 36.734375 30.957031 35.8125 31.175781 35 31.636719 L 35 19 C 35 13.914062 32.449219 11 28 11 L 20.75 11 C 21.433594 9.832031 22 8.445312 22 7 C 22.058594 6.140625 22.371094 5.316406 22.890625 4.632812 C 24.050781 2.960938 25.964844 1.972656 28 2 L 33 2 C 36.863281 2.003906 39.996094 5.136719 40 9 L 40 13 C 40 14.199219 39.632812 16.042969 36.445312 18.167969 C 36.167969 18.351562 36 18.664062 36 19 L 36 27 C 36 27.441406 36.289062 27.832031 36.710938 27.957031 L 49.683594 31.839844 C 51.820312 32.429688 53.457031 34.152344 53.933594 36.316406 L 55.015625 41.179688 L 58.800781 62 L 50.816406 62 L 49 52.90625 L 49 43 L 47 43 L 47 52.808594 L 43.070312 62.628906 L 44.929688 63.371094 L 47.679688 56.5 L 49.019531 63.199219 C 49.113281 63.664062 49.523438 64 50 64 L 60 64 C 60.296875 64 60.578125 63.867188 60.765625 63.640625 C 60.957031 63.414062 61.035156 63.113281 60.980469 62.824219 L 56.976562 40.785156 L 55.886719 35.886719 C 55.253906 33.003906 53.078125 30.710938 50.238281 29.917969 L 38 26.257812 L 38 19.527344 C 40.691406 17.609375 42 15.46875 42 13 L 42 9 C 41.996094 4.03125 37.96875 0.00390625 33 0 Z M 5 5.917969 C 4.984375 6.152344 4.5625 11.742188 8.089844 15.578125 C 10.179688 17.847656 13.175781 19 17 19 C 17.371094 19 17.710938 18.800781 17.882812 18.472656 C 18.058594 18.148438 18.039062 17.753906 17.835938 17.445312 L 15.835938 14.445312 L 14.171875 15.554688 L 15.050781 16.875 C 12.96875 16.675781 11.027344 15.738281 9.574219 14.234375 C 6.640625 11.054688 7 6.132812 7 6.082031 Z M 18 20 C 17.867188 20 5.441406 20.128906 4.121094 30.210938 L 2.554688 29.167969 L 1.445312 30.832031 L 4.425781 32.820312 C 4.433594 32.824219 4.4375 32.828125 4.445312 32.832031 C 4.609375 32.941406 4.800781 33 5 33 C 5.191406 33 5.375 32.945312 5.535156 32.847656 L 8.660156 30.847656 L 7.582031 29.164062 L 6.160156 30.070312 C 7.554688 22.121094 17.546875 22 18 22 Z M 29 26 L 29 28 L 31 28 L 31 26 Z M 37.371094 32.992188 C 37.46875 32.988281 37.570312 32.992188 37.667969 33 C 38.433594 33 40.277344 34.269531 42.964844 37.851562 C 43.644531 38.78125 44.007812 39.898438 44 41.046875 L 44 52.210938 C 44.082031 53.664062 42.976562 54.90625 41.527344 55 C 41.015625 54.996094 40.523438 54.824219 40.128906 54.507812 L 36.070312 51.34375 C 35.378906 50.785156 34.988281 49.9375 35 49.050781 L 35 42.964844 C 35.761719 42.859375 36.46875 42.503906 37.007812 41.953125 L 39 45.277344 L 39 48.585938 L 37.292969 50.292969 L 38.707031 51.707031 L 39.84375 50.570312 L 41.167969 52.554688 L 42.832031 51.445312 L 41 48.699219 L 41 46 L 43 46 L 43 44 L 40.566406 44 L 38.769531 41 L 41 41 L 41 39 L 37.984375 39 C 37.886719 37.957031 37.324219 37.015625 36.453125 36.433594 L 35 35.464844 L 35 34.28125 C 35.539062 33.496094 36.417969 33.019531 37.371094 32.992188 Z M 26.628906 32.992188 C 27.582031 33.019531 28.460938 33.5 29 34.285156 L 29 35.464844 L 27.546875 36.4375 C 26.675781 37.019531 26.117188 37.960938 26.015625 39 L 23 39 L 23 41 L 25.230469 41 L 23.433594 44 L 21 44 L 21 46 L 23 46 L 23 48.695312 L 21.167969 51.445312 L 22.832031 52.554688 L 24.15625 50.570312 L 25.292969 51.707031 L 26.707031 50.292969 L 25 48.585938 L 25 45.277344 L 26.992188 41.953125 C 27.53125 42.503906 28.238281 42.859375 29 42.960938 L 29 49.050781 C 29.011719 49.9375 28.617188 50.78125 27.929688 51.34375 L 23.871094 54.503906 C 23.472656 54.824219 22.980469 54.996094 22.472656 55 C 21.023438 54.90625 19.917969 53.664062 20 52.210938 L 20 41.046875 C 19.992188 39.902344 20.355469 38.78125 21.035156 37.855469 C 23.726562 34.269531 25.566406 33 26.332031 33 C 26.429688 32.992188 26.53125 32.992188 26.628906 32.992188 Z M 26.628906 32.992188 "/>
</g>
</svg>
