<svg fill="#000000" xmlns="http://www.w3.org/2000/svg"  viewBox="0 0 50 50" width="50px" height="50px"><path d="M 25 8 C 15.611 8 8 15.611 8 25 C 8 34.389 15.611 42 25 42 C 34.389 42 42 34.389 42 25 C 42 15.611 34.389 8 25 8 z M 25 9 C 33.837 9 41 16.163 41 25 C 41 33.837 33.837 41 25 41 C 16.163 41 9 33.837 9 25 C 9 16.163 16.163 9 25 9 z M 25.152344 17.787109 C 24.849344 17.787109 24.674203 17.857625 24.283203 18.140625 L 20.943359 20.414062 C 20.660359 20.619062 20.572266 20.775531 20.572266 21.019531 C 20.572266 21.351531 20.787375 21.576172 21.109375 21.576172 C 21.275375 21.576172 21.412594 21.528875 21.558594 21.421875 L 24.546875 19.419922 L 24.576172 19.419922 L 24.576172 31.519531 C 24.576172 31.929531 24.839703 32.210938 25.220703 32.210938 C 25.601703 32.210937 25.865234 31.927578 25.865234 31.517578 L 25.865234 18.519531 C 25.865234 18.060531 25.591344 17.787109 25.152344 17.787109 z"/></svg>