<svg enable-background="new 0 0 331.622 512.645" height="513" viewBox="0 0 331.622 512.645" width="332" xmlns="http://www.w3.org/2000/svg"><path d="m331.622 512.645-329.117-2.609 5.896-502.73 314.82-1.827z" fill="#006"/><path d="m0 0h323.221v505.339h-323.221z" fill="#fff"/><path d="m208.974 65.8 1.344-1.298c2.018-1.948 5.024-1.093 6.1 1.735 1.117 2.938 1.063 6.192-.152 9.091l-3.947 9.415c-.922 2.199-3.374 2.65-4.802.884l-.526-.651 1.983-18.299z" fill="#36f"/><path d="m211.726 52.989c-6.198-29.974-33.644-27.107-33.644-27.107s-27.446-2.868-33.644 27.107c-.127.613-.171 1.244-.133 1.869.388 6.457 3.68 31.664 4.938 41.727.291 2.328 1.417 4.464 3.171 6.023l16.067 14.281h9.602 9.602l16.067-14.281c1.754-1.559 2.88-3.694 3.171-6.023 1.258-10.063 4.55-35.271 4.938-41.727.036-.624-.009-1.256-.135-1.869z" fill="#36f"/><path d="m147.19 65.8-1.344-1.298c-2.018-1.948-5.024-1.093-6.1 1.735-1.117 2.938-1.063 6.192.152 9.091l3.947 9.415c.922 2.199 3.374 2.65 4.802.884l.526-.651-1.983-18.299z" fill="#36f"/><path d="m311.822 415.011-10.589-27.606 6.679-79.318-2.922-20.038-22.957-108.909c-2.136-10.131-9.261-18.488-18.927-22.199l-63.004-24.189v-30.37l-22.021 3.653-22.021-3.653v30.37l-63.004 24.189c-9.666 3.711-16.791 12.068-18.926 22.199l-22.957 108.909-2.922 20.038 6.679 79.318-10.588 27.606c-.747 1.946-.965 4.051-.632 6.109 1.162 7.188 4.619 24.166 11.847 28.331.145.393.317.802.507 1.217.934 2.042 3.959 1.63 4.346-.581l3.131-17.857 4.036-17.999c.58-2.586 4.095-2.991 5.248-.605l3.24 6.706s-1.558 4.069-2.357 10.34c-.28 2.198 2.574 3.289 3.82 1.456 3.094-4.55 5.739-9.135 5.739-9.135l-2.192-31.936-4.07-8.767 9.692-60.99c.665-4.183.569-8.452-.284-12.601l-1.842-8.963 26.926-84.327 5.427 3.966s-1.461 19.412 7.306 48.844c-.626 11.48-2.359 60.537-2.359 60.537l-4.751 7.486c-1.394 2.197-2.115 4.754-2.074 7.356v39.631s-7.514 63.872-4.175 101.444c0 .417 45.19 0 45.19 0l16.177-79.527 5.845.417 5.845-.417 16.177 79.527s45.19.417 45.19 0c3.34-37.572-4.175-101.444-4.175-101.444v-39.629c.041-2.602-.68-5.159-2.074-7.356l-4.751-7.486s-1.733-49.057-2.359-60.537c8.767-29.431 7.306-48.844 7.306-48.844l5.427-3.966 26.926 84.327-1.842 8.963c-.853 4.149-.949 8.417-.284 12.601l9.692 60.99-4.07 8.767-2.192 31.936s2.645 4.584 5.738 9.135c1.246 1.833 4.1.742 3.82-1.456-.799-6.271-2.357-10.34-2.357-10.34l3.24-6.706c1.153-2.386 4.668-1.981 5.248.605l4.036 17.999 3.131 17.857c.388 2.211 3.413 2.623 4.347.581.19-.415.362-.824.507-1.217 7.228-4.165 10.685-21.143 11.847-28.331.331-2.06.113-4.164-.634-6.111z" fill="#36f"/><circle cx="178.291" cy="46.338" fill="#fff" r="11.272"/><circle cx="178.291" cy="135.884" fill="#fff" r="11.272"/><circle cx="213.775" cy="210.193" fill="#fff" r="11.272"/><circle cx="178.082" cy="261.541" fill="#fff" r="11.272"/><path d="m147.055 8.521h1v62.797h-1z" fill="#006" transform="matrix(.2044 -.9789 .9789 .2044 78.3151 176.199)"/><path d="m137.846 74.651h1.001v87.291h-1.001z" fill="#006" transform="matrix(.403 -.9152 .9152 .403 -25.6704 197.2401)"/><path d="m187.039 166.903h95.219v1h-95.219z" fill="#006" transform="matrix(.4377 -.8991 .8991 .4377 -18.5745 305.1049)"/><path d="m118.685 185.38h1.001v121.707h-1.001z" fill="#006" transform="matrix(.2515 -.9678 .9678 .2515 -149.1109 299.6464)"/><g fill="#36f"><path d="m58.896 20.904h48.843v1h-48.843z"/><path d="m58.896 30.162h48.843v1h-48.843z"/><path d="m58.896 39.42h48.843v1h-48.843z"/><path d="m245.189 96.517h48.843v1h-48.843z"/><path d="m245.189 105.775h48.843v1h-48.843z"/><path d="m245.189 115.033h48.843v1h-48.843z"/><path d="m55.02 72.973h48.843v1h-48.843z"/><path d="m55.02 82.232h48.843v1h-48.843z"/><path d="m55.02 91.49h48.843v1h-48.843z"/><path d="m6.177 221.168h48.843v1h-48.843z"/><path d="m6.177 230.425h48.843v1h-48.843z"/><path d="m6.177 239.683h48.843v1h-48.843z"/></g><circle cx="10.566" cy="8.723" fill="#006" r="5.004"/><circle cx="312.605" cy="8.723" fill="#006" r="5.004"/></svg>